ply
format ascii 1.0
comment VCGLIB generated
element vertex 484
property float x
property float y
property float z
element face 816
property list uchar int vertex_indices
end_header
0 0 0 
0 -1.5 1.5 
1.5 -1.5 3.33067e-16 
1.5 0 0 
1.5 -1.5 1.5 
1.5 3.33067e-16 1.5 
0 -1.5 3.33067e-16 
-1.5 3.33067e-16 1.5 
-1.5 0 0 
0 3.33067e-16 1.5 
0 1.5 -3.33067e-16 
0 1.5 1.5 
-1.5 1.5 -3.33067e-16 
-3 3 1.5 
-3 3 -6.66134e-16 
-1.5 3 -6.66134e-16 
-3 1.5 -3.33067e-16 
-1.5 3 1.5 
-1.5 1.5 1.5 
-3 1.5 1.5 
-6 4.5 1.5 
-4.5 6 -1.33227e-15 
-6 4.5 -9.99201e-16 
-4.5 6 1.5 
-4.5 4.5 -9.99201e-16 
-4.5 4.5 1.5 
-7.5 6 1.5 
-6 7.5 -1.66533e-15 
-6 6 -1.33227e-15 
-7.5 6 -1.33227e-15 
-6 7.5 1.5 
-6 6 1.5 
-7.5 9 1.5 
-7.5 7.5 -1.66533e-15 
-9 7.5 -1.66533e-15 
-7.5 9 -1.9984e-15 
-7.5 7.5 1.5 
-9 7.5 1.5 
-10.5 10.5 -2.33147e-15 
-9 9 1.5 
-9 9 -1.9984e-15 
-10.5 9 -1.9984e-15 
-9 10.5 1.5 
-9 10.5 -2.33147e-15 
-10.5 9 1.5 
-12 12 -2.66454e-15 
-12 10.5 1.5 
-10.5 10.5 1.5 
-10.5 12 1.5 
-10.5 12 -2.66454e-15 
-12 10.5 -2.33147e-15 
-15 15 1.5 
-13.5 13.5 1.5 
-13.5 15 1.5 
-15 13.5 -2.9976e-15 
-13.5 15 -3.33067e-15 
-13.5 13.5 -2.9976e-15 
-15 13.5 1.5 
-16.5 16.5 -3.66374e-15 
-16.5 15 -3.33067e-15 
-16.5 15 1.5 
-15 16.5 -3.66374e-15 
-15 15 -3.33067e-15 
-15 16.5 1.5 
-16.5 16.5 1.5 
-4.49844 2.99172 0.0145157 
-2.99844 2.99172 1.51452 
-4.49844 4.49172 0.0145157 
-2.99844 4.49172 0.0145157 
-4.49844 4.49172 1.51452 
-2.99844 4.49172 1.51452 
-2.99844 2.99172 0.0145157 
-4.49844 2.99172 1.51452 
0 -0.00112065 0.0123242 
-1.5 -0.00112065 0.0123242 
-1.5 -0.00112065 1.51232 
0 -0.00112065 1.51232 
-1.5 -1.50112 0.0123242 
0 -1.50112 0.0123242 
-1.5 -1.50112 1.51232 
0 -1.50112 1.51232 
-3 1.48518 0.0129746 
-1.5 1.48518 1.51297 
-1.5 -0.0148189 1.51297 
-1.5 1.48518 0.0129746 
-3 1.48518 1.51297 
-3 -0.0148189 1.51297 
-3 -0.0148189 0.0129746 
-1.5 -0.0148189 0.0129746 
-4.485 2.99654 0.000231379 
-2.985 2.99654 0.000231379 
-2.985 2.99654 1.50023 
-2.985 1.49654 1.50023 
-4.485 2.99654 1.50023 
-4.485 1.49654 0.000231379 
-2.985 1.49654 0.000231379 
-4.485 1.49654 1.50023 
-6 4.49675 1.50427 
-4.5 4.49675 0.0042725 
-4.5 4.49675 1.50427 
-6 4.49675 0.0042725 
-6 2.99675 0.0042725 
-4.5 2.99675 0.0042725 
-4.5 2.99675 1.50427 
-6 2.99675 1.50427 
-7.5 5.99992 0.00837129 
-6 5.99992 0.00837129 
-6 4.49992 0.00837129 
-7.5 4.49992 0.00837129 
-7.5 5.99992 1.50837 
-6 4.49992 1.50837 
-6 5.99992 1.50837 
-7.5 4.49992 1.50837 
-8.985 7.49082 0.0140195 
-8.985 5.99082 0.0140195 
-8.985 5.99082 1.51402 
-7.485 5.99082 1.51402 
-7.485 5.99082 0.0140195 
-8.985 7.49082 1.51402 
-7.485 7.49082 1.51402 
-7.485 7.49082 0.0140195 
-9 8.99335 1.511 
-9 7.49335 1.511 
-9 7.49335 0.0110006 
-10.5 7.49335 0.0110006 
-10.5 8.99335 1.511 
-10.5 8.99335 0.0110006 
-9 8.99335 0.0110006 
-10.5 7.49335 1.511 
-11.9883 10.4971 0.000162027 
-10.4883 8.99705 1.50016 
-11.9883 8.99705 0.000162027 
-11.9883 10.4971 1.50016 
-11.9883 8.99705 1.50016 
-10.4883 10.4971 1.50016 
-10.4883 10.4971 0.000162027 
-10.4883 8.99705 0.000162027 
-13.5 11.9983 0.00355673 
-12 10.4983 1.50356 
-12 11.9983 0.00355673 
-12 10.4983 0.00355673 
-13.5 10.4983 1.50356 
-12 11.9983 1.50356 
-13.5 11.9983 1.50356 
-13.5 10.4983 0.00355673 
-15 14.9957 0.00354066 
-16.5 13.4957 0.00354066 
-16.5 14.9957 1.50354 
-15 14.9957 1.50354 
-16.5 14.9957 0.00354066 
-15 13.4957 0.00354066 
-15 13.4957 1.50354 
-16.5 13.4957 1.50354 
0.0118832 3.34265e-16 1.5054 
1.51188 1.19844e-18 0.00539729 
0.0118832 1.5 1.5054 
1.51188 1.5 0.00539729 
0.0118832 1.5 0.00539729 
1.51188 1.5 1.5054 
0.0118832 1.19844e-18 0.00539729 
1.51188 3.34265e-16 1.5054 
0.00492034 1.5 1.51108 
0.00492034 3 1.51108 
-1.49508 3 0.0110813 
-1.49508 3 1.51108 
0.00492034 3 0.0110813 
-1.49508 1.5 0.0110813 
0.00492034 1.5 0.0110813 
-1.49508 1.5 1.51108 
-2.98683 4.485 0.000301205 
-2.98683 2.985 0.000301205 
-2.98683 4.485 1.5003 
-1.48683 4.485 1.5003 
-1.48683 4.485 0.000301205 
-1.48683 2.985 0.000301205 
-1.48683 2.985 1.5003 
-2.98683 2.985 1.5003 
-4.49606 4.5 0.00180521 
-2.99606 4.5 1.50181 
-4.49606 6 0.00180521 
-2.99606 6 1.50181 
-4.49606 6 1.50181 
-2.99606 6 0.00180521 
-4.49606 4.5 1.50181 
-2.99606 4.5 0.00180521 
-5.98855 7.5 1.51228 
-5.98855 6 1.51228 
-4.48855 7.5 1.51228 
-4.48855 6 0.01228 
-5.98855 6 0.01228 
-4.48855 7.5 0.01228 
-5.98855 7.5 0.01228 
-4.48855 6 1.51228 
-7.49581 8.985 0.00417651 
-5.99581 8.985 0.00417651 
-5.99581 7.485 0.00417651 
-7.49581 8.985 1.50418 
-7.49581 7.485 1.50418 
-5.99581 7.485 1.50418 
-5.99581 8.985 1.50418 
-7.49581 7.485 0.00417651 
-8.99981 10.5 0.00630551 
-7.49981 10.5 0.00630551 
-7.49981 9 0.00630551 
-8.99981 9 0.00630551 
-8.99981 10.5 1.50631 
-7.49981 10.5 1.50631 
-7.49981 9 1.50631 
-8.99981 9 1.50631 
-10.4866 12 0.0122253 
-8.98663 12 0.0122253 
-8.98663 10.5 1.51223 
-10.4866 12 1.51223 
-8.98663 12 1.51223 
-10.4866 10.5 0.0122253 
-8.98663 10.5 0.0122253 
-10.4866 10.5 1.51223 
-12 12 1.5 
-12 13.5 -2.9976e-15 
-12 13.5 1.5 
-10.5 13.5 1.5 
-10.5 13.5 -2.9976e-15 
-13.4953 15 0.0144736 
-13.4953 16.5 0.0144736 
-14.9953 15 0.0144736 
-13.4953 16.5 1.51447 
-14.9953 16.5 0.0144736 
-14.9953 16.5 1.51447 
-14.9953 15 1.51447 
-13.4953 15 1.51447 
-15 10.5 1.5 
-13.5 10.5 1.5 
-13.5 12 -2.66454e-15 
-13.5 10.5 -2.33147e-15 
-15 12 1.5 
-13.5 12 1.5 
-15 10.5 -2.33147e-15 
-16.5 12 -2.66454e-15 
-16.5 10.5 -2.33147e-15 
-15 12 -2.66454e-15 
-16.5 10.4923 0.00382325 
-16.5 8.99234 0.00382325 
-15 10.4923 1.50382 
-15 10.4923 0.00382325 
-16.5 10.4923 1.50382 
-16.5 8.99234 1.50382 
-15 8.99234 0.00382325 
-15 8.99234 1.50382 
-15 7.49755 1.50068 
-15 7.49755 0.000678572 
-16.5 7.49755 0.000678572 
-16.5 7.49755 1.50068 
-16.5 8.99755 0.000678572 
-16.5 8.99755 1.50068 
-15 8.99755 1.50068 
-15 8.99755 0.000678572 
-13.5 11.9874 0.00689964 
-12 11.9874 0.00689964 
-13.5 13.4874 1.5069 
-12 11.9874 1.5069 
-12 13.4874 0.00689964 
-13.5 13.4874 0.00689964 
-12 13.4874 1.5069 
-13.5 11.9874 1.5069 
-13.5 14.9993 0.00624318 
-12 14.9993 1.50624 
-12 13.4993 0.00624318 
-13.5 13.4993 0.00624318 
-12 14.9993 0.00624318 
-13.5 13.4993 1.50624 
-12 13.4993 1.50624 
-13.5 14.9993 1.50624 
-15 13.496 0.0059901 
-13.5 11.996 0.0059901 
-13.5 13.496 0.0059901 
-15 11.996 0.0059901 
-15 11.996 1.50599 
-13.5 11.996 1.50599 
-15 13.496 1.50599 
-13.5 13.496 1.50599 
-11.9886 13.5 0.0065204 
-11.9886 13.5 1.50652 
-10.4886 15 1.50652 
-10.4886 15 0.0065204 
-10.4886 13.5 1.50652 
-11.9886 15 1.50652 
-11.9886 15 0.0065204 
-10.4886 13.5 0.0065204 
-12 16.5 -3.66374e-15 
-12 15 1.5 
-10.5 15 1.5 
-12 15 -3.33067e-15 
-12 16.5 1.5 
-10.5 15 -3.33067e-15 
-10.4894 16.5 1.50136 
-10.4894 16.5 0.00135908 
-10.4894 15 1.50136 
-8.98936 16.5 0.00135908 
-10.4894 15 0.00135908 
-8.98936 15 0.00135908 
-8.98936 15 1.50136 
-8.98936 16.5 1.50136 
-8.9863 16.5 1.50381 
-7.4863 15 1.50381 
-7.4863 16.5 1.50381 
-7.4863 15 0.0038101 
-8.9863 15 0.0038101 
-8.9863 15 1.50381 
-8.9863 16.5 0.0038101 
-7.4863 16.5 0.0038101 
-4.5 15 1.5 
-4.5 15 -3.33067e-15 
-6 15 1.5 
-4.5 16.5 -3.66374e-15 
-6 15 -3.33067e-15 
-7.49759 15 1.50043 
-7.49759 16.5 0.000434457 
-5.99759 15 1.50043 
-5.99759 15 0.000434457 
-7.49759 15 0.000434457 
-5.99759 16.5 0.000434457 
-7.49759 16.5 1.50043 
-5.99759 16.5 1.50043 
-16.5 7.49944 0.00317945 
-16.5 5.99944 0.00317945 
-16.5 7.49944 1.50318 
-15 7.49944 1.50318 
-16.5 5.99944 1.50318 
-15 7.49944 0.00317945 
-15 5.99944 0.00317945 
-15 5.99944 1.50318 
-16.5 5.99465 0.0105991 
-16.5 4.49465 0.0105991 
-16.5 4.49465 1.5106 
-15 5.99465 1.5106 
-16.5 5.99465 1.5106 
-15 5.99465 0.0105991 
-15 4.49465 0.0105991 
-15 4.49465 1.5106 
-15 10.4859 1.51418 
-15 10.4859 0.014175 
-13.5 10.4859 0.014175 
-13.5 10.4859 1.51418 
-13.5 8.98588 1.51418 
-15 8.98588 1.51418 
-15 8.98588 0.014175 
-13.5 8.98588 0.014175 
-15 8.98848 1.51072 
-13.5 7.48848 1.51072 
-13.5 7.48848 0.0107249 
-13.5 8.98848 0.0107249 
-15 7.48848 0.0107249 
-15 7.48848 1.51072 
-15 8.98848 0.0107249 
-13.5 8.98848 1.51072 
-15 7.48701 1.50689 
-13.5 7.48701 0.00689063 
-15 7.48701 0.00689063 
-13.5 7.48701 1.50689 
-15 5.98701 0.00689063 
-13.5 5.98701 0.00689063 
-15 5.98701 1.50689 
-13.5 5.98701 1.50689 
-13.5 5.99121 1.50583 
-15 5.99121 0.00582694 
-13.5 4.49121 0.00582694 
-15 5.99121 1.50583 
-13.5 5.99121 0.00582694 
-15 4.49121 0.00582694 
-13.5 4.49121 1.50583 
-15 4.49121 1.50583 
-16.5 4.48852 1.50379 
-16.5 2.98852 0.0037906 
-16.5 2.98852 1.50379 
-15 2.98852 1.50379 
-15 4.48852 0.0037906 
-16.5 4.48852 0.0037906 
-15 4.48852 1.50379 
-15 2.98852 0.0037906 
-18 6 1.5 
-16.5 4.5 1.5 
-16.5 6 -1.33227e-15 
-18 4.5 -9.99201e-16 
-18 4.5 1.5 
-16.5 6 1.5 
-16.5 4.5 -9.99201e-16 
-16.5 7.5 1.5 
-18 6 -1.33227e-15 
-18 9 -1.9984e-15 
-18 7.5 -1.66533e-15 
-16.5 9 -1.9984e-15 
-16.5 9 1.5 
-18 9 1.5 
-16.5 7.5 -1.66533e-15 
-18 7.5 1.5 
-18 10.5 1.5 
-18 12 -2.66454e-15 
-16.5 12 1.5 
-18 10.5 -2.33147e-15 
-16.5 10.5 1.5 
-18 12 1.5 
-16.5 13.4868 1.50305 
-16.5 13.4868 0.00305228 
-15 11.9868 1.50305 
-15 11.9868 0.00305228 
-16.5 11.9868 0.00305228 
-16.5 11.9868 1.50305 
-15 13.4868 1.50305 
-15 13.4868 0.00305228 
-10.4882 15 0.00256717 
-10.4882 13.5 0.00256717 
-8.98819 15 0.00256717 
-8.98819 13.5 1.50257 
-10.4882 15 1.50257 
-8.98819 15 1.50257 
-10.4882 13.5 1.50257 
-8.98819 13.5 0.00256717 
-8.99554 15 0.00320306 
-8.99554 13.5 0.00320306 
-8.99554 13.5 1.5032 
-7.49554 15 1.5032 
-7.49554 13.5 0.00320306 
-7.49554 13.5 1.5032 
-8.99554 15 1.5032 
-7.49554 15 0.00320306 
-7.49526 15 0.00147559 
-5.99526 13.5 0.00147559 
-5.99526 15 1.50148 
-7.49526 13.5 1.50148 
-7.49526 15 1.50148 
-5.99526 15 0.00147559 
-7.49526 13.5 0.00147559 
-5.99526 13.5 1.50148 
-5.99464 15 1.51198 
-5.99464 15 0.0119806 
-5.99464 13.5 1.51198 
-4.49464 15 1.51198 
-4.49464 15 0.0119806 
-5.99464 13.5 0.0119806 
-4.49464 13.5 0.0119806 
-4.49464 13.5 1.51198 
-4.49796 15 0.00125037 
-2.99796 16.5 0.00125037 
-4.49796 15 1.50125 
-4.49796 16.5 1.50125 
-4.49796 16.5 0.00125037 
-2.99796 16.5 1.50125 
-2.99796 15 0.00125037 
-2.99796 15 1.50125 
-4.5 18 1.5 
-4.5 18 -3.9968e-15 
-4.5 16.5 1.5 
-6 16.5 1.5 
-6 18 -3.9968e-15 
-7.5 16.5 -3.66374e-15 
-6 16.5 -3.66374e-15 
-6 18 1.5 
-9 16.5 -3.66374e-15 
-9 18 1.5 
-7.5 18 1.5 
-7.5 16.5 1.5 
-7.5 18 -3.9968e-15 
-9 18 -3.9968e-15 
-9 16.5 1.5 
-10.5 18 1.5 
-10.5 16.5 1.5 
-10.5 18 -3.9968e-15 
-10.5 16.5 -3.66374e-15 
-13.4989 16.494 0.000276516 
-13.4989 14.994 1.50028 
-13.4989 14.994 0.000276516 
-11.9989 14.994 1.50028 
-11.9989 16.494 0.000276516 
-11.9989 14.994 0.000276516 
-11.9989 16.494 1.50028 
-13.4989 16.494 1.50028 
-11.9951 16.4882 1.51131 
-10.4951 16.4882 0.0113145 
-11.9951 17.9882 0.0113145 
-11.9951 17.9882 1.51131 
-10.4951 17.9882 1.51131 
-10.4951 17.9882 0.0113145 
-11.9951 16.4882 0.0113145 
-10.4951 16.4882 1.51131 
3 9 0 1 
3 0 6 1 
3 4 3 5 
3 4 2 3 
3 3 6 0 
3 3 2 6 
3 9 1 5 
3 1 4 5 
3 9 3 0 
3 9 5 3 
3 6 2 1 
3 2 4 1 
3 18 12 7 
3 12 8 7 
3 9 10 11 
3 9 0 10 
3 10 8 12 
3 10 0 8 
3 18 7 11 
3 7 9 11 
3 18 10 12 
3 18 11 10 
3 8 0 7 
3 0 9 7 
3 13 14 19 
3 14 16 19 
3 18 15 17 
3 18 12 15 
3 15 16 14 
3 15 12 16 
3 13 19 17 
3 19 18 17 
3 13 15 14 
3 13 17 15 
3 16 12 19 
3 12 18 19 
3 31 28 20 
3 28 22 20 
3 25 21 23 
3 25 24 21 
3 21 22 28 
3 21 24 22 
3 31 20 23 
3 20 25 23 
3 31 21 28 
3 31 23 21 
3 22 24 20 
3 24 25 20 
3 36 33 26 
3 33 29 26 
3 31 27 30 
3 31 28 27 
3 27 29 33 
3 27 28 29 
3 36 26 30 
3 26 31 30 
3 36 27 33 
3 36 30 27 
3 29 28 26 
3 28 31 26 
3 39 40 37 
3 40 34 37 
3 36 35 32 
3 36 33 35 
3 35 34 40 
3 35 33 34 
3 39 37 32 
3 37 36 32 
3 39 35 40 
3 39 32 35 
3 34 33 37 
3 33 36 37 
3 47 38 44 
3 38 41 44 
3 39 43 42 
3 39 40 43 
3 43 41 38 
3 43 40 41 
3 47 44 42 
3 44 39 42 
3 47 43 38 
3 47 42 43 
3 41 40 44 
3 40 39 44 
3 217 45 46 
3 45 50 46 
3 47 49 48 
3 47 38 49 
3 49 50 45 
3 49 38 50 
3 217 46 48 
3 46 47 48 
3 217 49 45 
3 217 48 49 
3 50 38 46 
3 38 47 46 
3 51 62 57 
3 62 54 57 
3 52 55 53 
3 52 56 55 
3 55 54 62 
3 55 56 54 
3 51 57 53 
3 57 52 53 
3 51 55 62 
3 51 53 55 
3 54 56 57 
3 56 52 57 
3 64 58 60 
3 58 59 60 
3 51 61 63 
3 51 62 61 
3 61 59 58 
3 61 62 59 
3 64 60 63 
3 60 51 63 
3 64 61 58 
3 64 63 61 
3 59 62 60 
3 62 51 60 
3 69 67 72 
3 67 65 72 
3 66 68 70 
3 66 71 68 
3 68 65 67 
3 68 71 65 
3 69 72 70 
3 72 66 70 
3 69 68 67 
3 69 70 68 
3 65 71 72 
3 71 66 72 
3 75 74 79 
3 74 77 79 
3 80 73 76 
3 80 78 73 
3 73 77 74 
3 73 78 77 
3 75 79 76 
3 79 80 76 
3 75 73 74 
3 75 76 73 
3 77 78 79 
3 78 80 79 
3 85 81 86 
3 81 87 86 
3 83 84 82 
3 83 88 84 
3 84 87 81 
3 84 88 87 
3 85 86 82 
3 86 83 82 
3 85 84 81 
3 85 82 84 
3 87 88 86 
3 88 83 86 
3 93 89 96 
3 89 94 96 
3 92 90 91 
3 92 95 90 
3 90 94 89 
3 90 95 94 
3 93 96 91 
3 96 92 91 
3 93 90 89 
3 93 91 90 
3 94 95 96 
3 95 92 96 
3 97 100 104 
3 100 101 104 
3 103 98 99 
3 103 102 98 
3 98 101 100 
3 98 102 101 
3 97 104 99 
3 104 103 99 
3 97 98 100 
3 97 99 98 
3 101 102 104 
3 102 103 104 
3 109 105 112 
3 105 108 112 
3 110 106 111 
3 110 107 106 
3 106 108 105 
3 106 107 108 
3 109 112 111 
3 112 110 111 
3 109 106 105 
3 109 111 106 
3 108 107 112 
3 107 110 112 
3 118 113 115 
3 113 114 115 
3 116 120 119 
3 116 117 120 
3 120 114 113 
3 120 117 114 
3 118 115 119 
3 115 116 119 
3 118 120 113 
3 118 119 120 
3 114 117 115 
3 117 116 115 
3 125 126 128 
3 126 124 128 
3 122 127 121 
3 122 123 127 
3 127 124 126 
3 127 123 124 
3 125 128 121 
3 128 122 121 
3 125 127 126 
3 125 121 127 
3 124 123 128 
3 123 122 128 
3 132 129 133 
3 129 131 133 
3 130 135 134 
3 130 136 135 
3 135 131 129 
3 135 136 131 
3 132 133 134 
3 133 130 134 
3 132 135 129 
3 132 134 135 
3 131 136 133 
3 136 130 133 
3 143 137 141 
3 137 144 141 
3 138 139 142 
3 138 140 139 
3 139 144 137 
3 139 140 144 
3 143 141 142 
3 141 138 142 
3 143 139 137 
3 143 142 139 
3 144 140 141 
3 140 138 141 
3 147 149 152 
3 149 146 152 
3 151 145 148 
3 151 150 145 
3 145 146 149 
3 145 150 146 
3 147 152 148 
3 152 151 148 
3 147 145 149 
3 147 148 145 
3 146 150 152 
3 150 151 152 
3 155 157 153 
3 157 159 153 
3 160 156 158 
3 160 154 156 
3 156 159 157 
3 156 154 159 
3 155 153 158 
3 153 160 158 
3 155 156 157 
3 155 158 156 
3 159 154 153 
3 154 160 153 
3 164 163 168 
3 163 166 168 
3 161 165 162 
3 161 167 165 
3 165 166 163 
3 165 167 166 
3 164 168 162 
3 168 161 162 
3 164 165 163 
3 164 162 165 
3 166 167 168 
3 167 161 168 
3 171 169 176 
3 169 170 176 
3 175 173 172 
3 175 174 173 
3 173 170 169 
3 173 174 170 
3 171 176 172 
3 176 175 172 
3 171 173 169 
3 171 172 173 
3 170 174 176 
3 174 175 176 
3 181 179 183 
3 179 177 183 
3 178 182 180 
3 178 184 182 
3 182 177 179 
3 182 184 177 
3 181 183 180 
3 183 178 180 
3 181 182 179 
3 181 180 182 
3 177 184 183 
3 184 178 183 
3 185 191 186 
3 191 189 186 
3 192 190 187 
3 192 188 190 
3 190 189 191 
3 190 188 189 
3 185 186 187 
3 186 192 187 
3 185 190 191 
3 185 187 190 
3 189 188 186 
3 188 192 186 
3 196 193 197 
3 193 200 197 
3 198 194 199 
3 198 195 194 
3 194 200 193 
3 194 195 200 
3 196 197 199 
3 197 198 199 
3 196 194 193 
3 196 199 194 
3 200 195 197 
3 195 198 197 
3 205 201 208 
3 201 204 208 
3 207 202 206 
3 207 203 202 
3 202 204 201 
3 202 203 204 
3 205 208 206 
3 208 207 206 
3 205 202 201 
3 205 206 202 
3 204 203 208 
3 203 207 208 
3 212 209 216 
3 209 214 216 
3 211 210 213 
3 211 215 210 
3 210 214 209 
3 210 215 214 
3 212 216 213 
3 216 211 213 
3 212 210 209 
3 212 213 210 
3 214 215 216 
3 215 211 216 
3 219 218 217 
3 218 45 217 
3 48 221 220 
3 48 49 221 
3 221 45 218 
3 221 49 45 
3 219 217 220 
3 217 48 220 
3 219 221 218 
3 219 220 221 
3 45 49 217 
3 49 48 217 
3 227 226 228 
3 226 224 228 
3 229 223 225 
3 229 222 223 
3 223 224 226 
3 223 222 224 
3 227 228 225 
3 228 229 225 
3 227 223 226 
3 227 225 223 
3 224 222 228 
3 222 229 228 
3 234 239 230 
3 239 236 230 
3 231 232 235 
3 231 233 232 
3 232 236 239 
3 232 233 236 
3 234 230 235 
3 230 231 235 
3 234 232 239 
3 234 235 232 
3 236 233 230 
3 233 231 230 
3 397 237 399 
3 237 238 399 
3 230 239 234 
3 230 236 239 
3 239 238 237 
3 239 236 238 
3 397 399 234 
3 399 230 234 
3 397 239 237 
3 397 234 239 
3 238 236 399 
3 236 230 399 
3 244 240 245 
3 240 241 245 
3 247 243 242 
3 247 246 243 
3 243 241 240 
3 243 246 241 
3 244 245 242 
3 245 247 242 
3 244 243 240 
3 244 242 243 
3 241 246 245 
3 246 247 245 
3 253 252 251 
3 252 250 251 
3 248 255 254 
3 248 249 255 
3 255 250 252 
3 255 249 250 
3 253 251 254 
3 251 248 254 
3 253 255 252 
3 253 254 255 
3 250 249 251 
3 249 248 251 
3 258 261 263 
3 261 256 263 
3 259 260 262 
3 259 257 260 
3 260 256 261 
3 260 257 256 
3 258 263 262 
3 263 259 262 
3 258 260 261 
3 258 262 260 
3 256 257 263 
3 257 259 263 
3 271 264 269 
3 264 267 269 
3 270 268 265 
3 270 266 268 
3 268 267 264 
3 268 266 267 
3 271 269 265 
3 269 270 265 
3 271 268 264 
3 271 265 268 
3 267 266 269 
3 266 270 269 
3 278 272 276 
3 272 275 276 
3 277 274 279 
3 277 273 274 
3 274 275 272 
3 274 273 275 
3 278 276 279 
3 276 277 279 
3 278 274 272 
3 278 279 274 
3 275 273 276 
3 273 277 276 
3 285 286 281 
3 286 280 281 
3 284 283 282 
3 284 287 283 
3 283 280 286 
3 283 287 280 
3 285 281 282 
3 281 284 282 
3 285 283 286 
3 285 282 283 
3 280 287 281 
3 287 284 281 
3 292 288 289 
3 288 291 289 
3 290 467 465 
3 290 293 467 
3 467 291 288 
3 467 293 291 
3 292 289 465 
3 289 290 465 
3 292 467 288 
3 292 465 467 
3 291 293 289 
3 293 290 289 
3 294 295 296 
3 295 298 296 
3 300 297 301 
3 300 299 297 
3 297 298 295 
3 297 299 298 
3 294 296 301 
3 296 300 301 
3 294 297 295 
3 294 301 297 
3 298 299 296 
3 299 300 296 
3 302 308 307 
3 308 306 307 
3 303 309 304 
3 303 305 309 
3 309 306 308 
3 309 305 306 
3 302 307 304 
3 307 303 304 
3 302 309 308 
3 302 304 309 
3 306 305 307 
3 305 303 307 
3 452 455 312 
3 455 314 312 
3 310 313 451 
3 310 311 313 
3 313 314 455 
3 313 311 314 
3 452 312 451 
3 312 310 451 
3 452 313 455 
3 452 451 313 
3 314 311 312 
3 311 310 312 
3 321 316 315 
3 316 319 315 
3 317 320 322 
3 317 318 320 
3 320 319 316 
3 320 318 319 
3 321 315 322 
3 315 317 322 
3 321 320 316 
3 321 322 320 
3 319 318 315 
3 318 317 315 
3 325 323 327 
3 323 324 327 
3 330 328 326 
3 330 329 328 
3 328 324 323 
3 328 329 324 
3 325 327 326 
3 327 330 326 
3 325 328 323 
3 325 326 328 
3 324 329 327 
3 329 330 327 
3 335 331 333 
3 331 332 333 
3 338 336 334 
3 338 337 336 
3 336 332 331 
3 336 337 332 
3 335 333 334 
3 333 338 334 
3 335 336 331 
3 335 334 336 
3 332 337 333 
3 337 338 333 
3 339 340 344 
3 340 345 344 
3 343 341 342 
3 343 346 341 
3 341 345 340 
3 341 346 345 
3 339 344 342 
3 344 343 342 
3 339 341 340 
3 339 342 341 
3 345 346 344 
3 346 343 344 
3 347 353 352 
3 353 351 352 
3 348 350 354 
3 348 349 350 
3 350 351 353 
3 350 349 351 
3 347 352 354 
3 352 348 354 
3 347 350 353 
3 347 354 350 
3 351 349 352 
3 349 348 352 
3 355 357 361 
3 357 359 361 
3 362 356 358 
3 362 360 356 
3 356 359 357 
3 356 360 359 
3 355 361 358 
3 361 362 358 
3 355 356 357 
3 355 358 356 
3 359 360 361 
3 360 362 361 
3 366 364 370 
3 364 368 370 
3 369 367 363 
3 369 365 367 
3 367 368 364 
3 367 365 368 
3 366 370 363 
3 370 369 363 
3 366 367 364 
3 366 363 367 
3 368 365 370 
3 365 369 370 
3 371 376 373 
3 376 372 373 
3 374 375 377 
3 374 378 375 
3 375 372 376 
3 375 378 372 
3 371 373 377 
3 373 374 377 
3 371 375 376 
3 371 377 375 
3 372 378 373 
3 378 374 373 
3 379 387 383 
3 387 382 383 
3 380 381 384 
3 380 385 381 
3 381 382 387 
3 381 385 382 
3 379 383 384 
3 383 380 384 
3 379 381 387 
3 379 384 381 
3 382 385 383 
3 385 380 383 
3 394 389 379 
3 389 387 379 
3 384 393 386 
3 384 381 393 
3 393 387 389 
3 393 381 387 
3 394 379 386 
3 379 384 386 
3 394 393 389 
3 394 386 393 
3 387 381 379 
3 381 384 379 
3 392 388 394 
3 388 389 394 
3 386 390 391 
3 386 393 390 
3 390 389 388 
3 390 393 389 
3 392 394 391 
3 394 386 391 
3 392 390 388 
3 392 391 390 
3 389 393 394 
3 393 386 394 
3 395 398 392 
3 398 388 392 
3 391 238 399 
3 391 390 238 
3 238 388 398 
3 238 390 388 
3 395 392 399 
3 392 391 399 
3 395 238 398 
3 395 399 238 
3 388 390 392 
3 390 391 392 
3 400 396 395 
3 396 398 395 
3 399 237 397 
3 399 238 237 
3 237 398 396 
3 237 238 398 
3 400 395 397 
3 395 399 397 
3 400 237 396 
3 400 397 237 
3 398 238 395 
3 238 399 395 
3 401 402 406 
3 402 405 406 
3 403 408 407 
3 403 404 408 
3 408 405 402 
3 408 404 405 
3 401 406 407 
3 406 403 407 
3 401 408 402 
3 401 407 408 
3 405 404 406 
3 404 403 406 
3 413 409 415 
3 409 410 415 
3 412 411 414 
3 412 416 411 
3 411 410 409 
3 411 416 410 
3 413 415 414 
3 415 412 414 
3 413 411 409 
3 413 414 411 
3 410 416 415 
3 416 412 415 
3 423 417 419 
3 417 418 419 
3 422 424 420 
3 422 421 424 
3 424 418 417 
3 424 421 418 
3 423 419 420 
3 419 422 420 
3 423 424 417 
3 423 420 424 
3 418 421 419 
3 421 422 419 
3 429 425 428 
3 425 431 428 
3 432 430 427 
3 432 426 430 
3 430 431 425 
3 430 426 431 
3 429 428 427 
3 428 432 427 
3 429 430 425 
3 429 427 430 
3 431 426 428 
3 426 432 428 
3 433 434 435 
3 434 438 435 
3 440 437 436 
3 440 439 437 
3 437 438 434 
3 437 439 438 
3 433 435 436 
3 435 440 436 
3 433 437 434 
3 433 436 437 
3 438 439 435 
3 439 440 435 
3 444 445 443 
3 445 441 443 
3 448 442 446 
3 448 447 442 
3 442 441 445 
3 442 447 441 
3 444 443 446 
3 443 448 446 
3 444 442 445 
3 444 446 442 
3 441 447 443 
3 447 448 443 
3 456 453 452 
3 453 455 452 
3 451 450 449 
3 451 313 450 
3 450 455 453 
3 450 313 455 
3 456 452 449 
3 452 451 449 
3 456 450 453 
3 456 449 450 
3 455 313 452 
3 313 451 452 
3 459 461 460 
3 461 454 460 
3 452 453 456 
3 452 455 453 
3 453 454 461 
3 453 455 454 
3 459 460 456 
3 460 452 456 
3 459 453 461 
3 459 456 453 
3 454 455 460 
3 455 452 460 
3 458 462 463 
3 462 457 463 
3 460 461 459 
3 460 454 461 
3 461 457 462 
3 461 454 457 
3 458 463 459 
3 463 460 459 
3 458 461 462 
3 458 459 461 
3 457 454 463 
3 454 460 463 
3 464 466 465 
3 466 467 465 
3 463 462 458 
3 463 457 462 
3 462 467 466 
3 462 457 467 
3 464 465 458 
3 465 463 458 
3 464 462 466 
3 464 458 462 
3 467 457 465 
3 457 463 465 
3 475 468 469 
3 468 470 469 
3 471 472 474 
3 471 473 472 
3 472 470 468 
3 472 473 470 
3 475 469 474 
3 469 471 474 
3 475 472 468 
3 475 474 472 
3 470 473 469 
3 473 471 469 
3 479 478 476 
3 478 482 476 
3 483 481 480 
3 483 477 481 
3 481 482 478 
3 481 477 482 
3 479 476 480 
3 476 483 480 
3 479 481 478 
3 479 480 481 
3 482 477 476 
3 477 483 476 
